<svg id="レイヤー_1" data-name="レイヤー 1" xmlns="http://www.w3.org/2000/svg" viewBox="0 0 613.55 232.58"><defs><style>.cls-1,.cls-3,.cls-4{stroke:#000;}.cls-1,.cls-2,.cls-3,.cls-4{stroke-miterlimit:10;}.cls-2,.cls-3{fill:none;}.cls-2{stroke:red;stroke-width:4.3px;}.cls-3{stroke-width:2px;}.cls-4{font-size:31px;font-family:KozGoPr6N-Regular-83pv-RKSJ-H, Kozuka Gothic Pr6N;}</style></defs><title>アートボード 1</title><path class="cls-1" d="M66.63,183.58v-130l-10.87,0H49.3v130H45.56v-130H29.75v130H25.84V49.31H70.93l-.39,134.27Z"/><path class="cls-1" d="M129,183.56v-9.68a18.66,18.66,0,1,1,0-18,16.49,16.49,0,0,0-16.37-16.59,16.22,16.22,0,0,0-11.91,5l-2-1.17A17.79,17.79,0,0,1,112.62,137a18.47,18.47,0,0,1,18.61,18.5v28.07Zm-16.37-35a16.36,16.36,0,0,0-16.37,16.59c0,9,7.65,16.05,16.59,16.05a16.32,16.32,0,0,0-.21-32.64Z"/><path class="cls-1" d="M177,183.56A23.28,23.28,0,1,1,177,137a22.35,22.35,0,0,1,8.72,1.7v2.66a22.58,22.58,0,0,0-8.72-1.91,20.92,20.92,0,0,0-20.73,20.84,20.75,20.75,0,0,0,29.45,18.82V182A24.35,24.35,0,0,1,177,183.56Z"/><path class="cls-1" d="M264,183.58V165a32.72,32.72,0,0,0-45.38-30.08v48.53h-4.08V49.31h4.08v81.32A36.74,36.74,0,0,1,267.89,165v18.62Z"/><path class="cls-1" d="M392.86,44.56v60.27h44.42v4.42H392.86v76.3h-4.48V40h49.09v4.61Z"/><path class="cls-1" d="M480.44,185.21v-5.78c-3.61,3.78-6.76,6.12-12.17,6.12A14.86,14.86,0,0,1,453.51,171V136.49h2.82v34.38a12,12,0,0,0,11.94,11.9c6.42,0,12.05-5.34,12.05-11.68v-34.6h2.82v48.73Z"/><path class="cls-1" d="M526.5,142.05a5.92,5.92,0,0,0-4.73-2.78c-6.08,0-7.77,5.67-7.77,10.68v35.6h-2.7V136.82H514v4.56c1.46-2.45,4.28-4.56,7.21-4.56a8,8,0,0,1,7.1,3.56Z"/><path class="cls-1" d="M545.38,156.4a23,23,0,0,0-.45,4.78,22.33,22.33,0,0,0,44.05,4.9l2.14,1.56a25,25,0,0,1-23.88,17.91,24.37,24.37,0,1,1,24.22-29.15Zm21.86-17.24a22.7,22.7,0,0,0-21.18,14.91h42.36C585.48,145.39,576.58,139.16,567.23,139.16Z"/><rect class="cls-2" x="300.71" y="114.63" width="50.29" height="15.66"/><path class="cls-2" d="M314,130.37c0,29.79-8.3,45.23-13,53.89"/><path class="cls-2" d="M337,130.37c0,29.41,7,45.06,11.46,53.21"/><path class="cls-2" d="M333.36,114.7a725,725,0,0,1-7.86-94.2s-.64,56.21-7.16,94.2"/><polyline class="cls-2" points="316.64 183.58 325.5 152.35 336.97 183.58"/><rect class="cls-3" width="613.55" height="232.58"/><text class="cls-4" transform="translate(219.38 211.62)">マ　チ　フ　レ</text><line class="cls-3" x1="22.92" y1="190.52" x2="212.55" y2="190.52"/><line class="cls-3" x1="443.38" y1="190.52" x2="591.46" y2="190.52"/></svg>